<?xml version="1.0" encoding="UTF-8"?>
<svg width="404" height="383" xmlns="http://www.w3.org/2000/svg" xmlns:svg="http://www.w3.org/2000/svg">
 <g>
  <title>Layer 1</title>
  <path id="svg_1" d="m0,0l404,0l0,383l-404,0l0,-383z" fill="#ffffff"/>
  <path id="svg_2" d="m119.22,11.78c5.84,-1.56 12.03,-0.62 18,-0.58c2.89,1.06 6.01,0.79 9.03,1.01c2.43,0.67 4.94,0.91 7.4,1.48c0.91,0.19 1.82,0.37 2.74,0.56c1.72,0.53 3.48,0.97 5.21,1.49c0.45,0.12 1.36,0.36 1.82,0.48c1.37,0.51 2.75,0.99 4.13,1.49c1.02,0.34 2.03,0.7 3.05,1.07c0.47,0.1 1.4,0.29 1.87,0.39c2.01,1.07 4.05,2.1 6.09,3.11c1.33,0.68 2.67,1.34 4,2.01c0.51,0.23 1.51,0.7 2.02,0.93c17.11,9.19 31.46,23.09 42.21,39.17c0.96,1.7 1.98,3.35 2.93,5.06c1.04,1.69 2.14,3.35 3.2,5.03c0.05,0.5 0.14,1.5 0.19,2c0.54,0.97 1.08,1.95 1.62,2.93c0.68,1.38 1.38,2.76 2.1,4.13c0.1,0.46 0.3,1.39 0.41,1.86c0.35,1.06 0.69,2.12 1.02,3.19c0.53,0.97 1.07,1.94 1.61,2.91c0.1,0.96 0.22,1.91 0.33,2.87c0.56,1.73 1.01,3.49 1.55,5.23c0.19,0.91 0.39,1.82 0.59,2.74c0.45,1.96 0.71,3.96 1.02,5.96c0.58,2.8 0.62,5.7 1.44,8.47c0.07,6.97 0.91,14.11 -0.49,20.98c-0.27,2.32 -0.42,4.67 -0.94,6.96c-0.33,1.99 -0.58,3.99 -1.03,5.95c-0.2,0.91 -0.4,1.82 -0.59,2.74c-0.54,1.73 -0.99,3.5 -1.55,5.23c-0.11,0.96 -0.21,1.93 -0.31,2.9c-0.59,0.98 -1.18,1.96 -1.77,2.94c-0.09,0.48 -0.25,1.43 -0.34,1.91c-0.36,1.05 -0.71,2.1 -1.04,3.16c-0.86,1.67 -1.71,3.35 -2.6,5.01c-0.07,0.48 -0.21,1.44 -0.28,1.92c-2.21,4.61 -4.99,8.89 -7.89,13.09c4.48,4.35 9.09,8.61 12.82,13.65c14.05,14.27 28.34,28.32 42.44,42.55c28.28,26.35 59.7,49.07 90.3,72.64c4.3,3.38 9.05,6.26 12.79,10.3c3.09,3.19 3.64,8.03 3.05,12.25c-1.43,3.9 -3.37,7.61 -5.18,11.35c-1.81,3.97 -5.6,6.38 -8.36,9.62c-5.43,6.4 -14.04,11.12 -22.61,9.35c-3.95,-1.55 -6.54,-5.15 -9.45,-8.07c-3,-3.99 -6.77,-7.37 -9.43,-11.63c-2.56,-4.01 -6.61,-6.73 -9.36,-10.59c-3.2,-4.41 -7.78,-7.58 -10.98,-11.98c-3.52,-4.79 -8.51,-8.24 -12.02,-13.03c-2.25,-3.04 -5.08,-5.55 -7.73,-8.22c-8,-8.01 -16.03,-15.99 -23.99,-24.03c-23.86,-21.37 -48.69,-41.68 -73.76,-61.64c-2.67,1.5 -5.28,3.12 -7.95,4.61c-1.07,0.7 -2.12,1.44 -3.15,2.2c-0.44,0.06 -1.34,0.18 -1.78,0.25c-3,1.6 -6.06,3.07 -9.08,4.6c-1.03,0.3 -2.06,0.61 -3.08,0.93c-1,0.33 -2,0.67 -2.99,1.01c-1.02,0.36 -2.04,0.72 -3.05,1.1c-0.45,0.12 -1.37,0.36 -1.83,0.48c-1.72,0.52 -3.47,0.96 -5.2,1.48c-0.91,0.2 -1.82,0.4 -2.73,0.6c-1.96,0.45 -3.95,0.71 -5.94,1.02c-2.81,0.58 -5.73,0.61 -8.49,1.44c-6.49,0.33 -13,0.32 -19.49,0.01c-2.59,-0.83 -5.32,-0.86 -8.01,-1.07c-2.41,-0.62 -4.89,-0.85 -7.32,-1.36c-1.35,-0.34 -2.69,-0.68 -4.02,-1.05c-1.32,-0.31 -2.63,-0.61 -3.93,-0.96c-1.01,-0.34 -2.01,-0.7 -3.01,-1.05c-1.02,-0.36 -2.03,-0.72 -3.04,-1.09c-0.45,-0.12 -1.36,-0.36 -1.82,-0.47c-1.04,-0.36 -2.09,-0.7 -3.15,-1.03c-0.95,-0.49 -1.91,-0.97 -2.86,-1.45c-1.35,-0.67 -2.68,-1.33 -4.02,-2c-1.33,-0.66 -2.67,-1.32 -4,-1.98c-6.9,-3.37 -13.19,-7.89 -19.22,-12.61c-3.75,-3.98 -8.64,-6.75 -11.7,-11.37c-4.7,-4.76 -8.75,-10.11 -12.43,-15.7c-0.79,-1.42 -1.64,-2.82 -2.43,-4.24c-0.84,-1.36 -1.72,-2.7 -2.65,-4c-0.07,-0.46 -0.2,-1.37 -0.27,-1.83c-0.89,-1.66 -1.74,-3.33 -2.6,-5c-0.68,-1.37 -1.38,-2.74 -2.09,-4.09c-0.1,-0.46 -0.31,-1.39 -0.41,-1.85c-0.35,-1.07 -0.69,-2.13 -1.02,-3.2c-0.53,-0.97 -1.06,-1.94 -1.6,-2.9c-0.12,-0.96 -0.25,-1.91 -0.38,-2.86c-0.41,-1.34 -0.76,-2.7 -1.11,-4.06c-0.38,-1.32 -0.71,-2.66 -1.06,-3.99c-0.4,-1.95 -0.64,-3.93 -0.94,-5.89c-0.66,-2.6 -0.69,-5.29 -0.91,-7.94c-1.49,-6.19 -0.6,-12.69 -0.54,-18.99c1.02,-3.07 0.67,-6.37 1.43,-9.49c0.32,-1.99 0.58,-3.99 1.03,-5.95c0.2,-0.91 0.4,-1.82 0.6,-2.73c0.52,-1.73 0.96,-3.48 1.49,-5.21c0.11,-0.46 0.33,-1.37 0.44,-1.83c0.55,-1.38 1.07,-2.77 1.62,-4.14c0.11,-0.46 0.32,-1.37 0.42,-1.83c0.36,-1.04 0.71,-2.08 1.05,-3.12c0.66,-1.35 1.32,-2.69 1.97,-4.04c0.86,-1.67 1.72,-3.34 2.61,-4.98c0.07,-0.46 0.2,-1.38 0.27,-1.84c0.93,-1.3 1.81,-2.64 2.65,-4c0.79,-1.43 1.64,-2.82 2.43,-4.25c9.39,-14.3 21.93,-26.46 36.34,-35.66c2.97,-1.73 5.9,-3.54 9,-5.02c1.35,-0.65 2.69,-1.3 4.04,-1.94c0.98,-0.54 1.95,-1.09 2.93,-1.64c0.5,-0.05 1.5,-0.15 2,-0.2c0.98,-0.6 1.96,-1.2 2.95,-1.8c0.48,-0.08 1.45,-0.22 1.93,-0.29c1.37,-0.54 2.76,-1.03 4.13,-1.55c1.02,-0.31 2.03,-0.63 3.04,-0.95c1.36,-0.33 2.71,-0.65 4.06,-1.02c0.9,-0.22 1.81,-0.43 2.72,-0.65c1.96,-0.44 3.95,-0.7 5.94,-1.02c2.92,-0.73 5.94,-0.65 8.93,-0.85z" fill="#ffffff"/>
  <path id="svg_3" d="m120.77,39.2c5.97,-0.1 12.1,-0.87 17.98,0.49c2.31,0.26 4.64,0.42 6.92,0.95c0.9,0.21 1.81,0.41 2.72,0.62c1.73,0.52 3.48,0.96 5.21,1.49c0.46,0.11 1.38,0.33 1.83,0.44c1.38,0.56 2.77,1.08 4.14,1.64c0.48,0.08 1.42,0.24 1.9,0.32c2.01,1.08 4.04,2.12 6.08,3.15c1.35,0.65 2.71,1.3 4.07,1.92c4.54,2.74 8.94,5.73 13.06,9.08c6.74,6.37 13.57,12.88 18.09,21.09c1.38,2.32 2.77,4.64 4.01,7.03c0.48,1.06 0.98,2.1 1.47,3.16c0.49,0.95 0.99,1.9 1.48,2.86c0.33,1.06 0.67,2.11 1.03,3.16c0.11,0.45 0.33,1.36 0.44,1.82c0.41,1 0.81,2.01 1.2,3.02c0.33,1.32 0.61,2.65 0.91,3.98c0.4,1.31 0.76,2.65 1.13,3.98c0.44,2.26 0.6,4.56 0.86,6.85c0.99,3.17 0.69,6.51 0.73,9.77c-0.07,3.58 0.33,7.25 -0.72,10.73c-0.27,2.31 -0.42,4.65 -0.95,6.92c-0.21,0.9 -0.42,1.81 -0.62,2.73c-0.53,1.72 -0.96,3.47 -1.49,5.2c-0.11,0.46 -0.33,1.38 -0.44,1.83c-0.56,1.38 -1.08,2.77 -1.64,4.15c-0.08,0.48 -0.22,1.44 -0.29,1.92c-0.56,0.97 -1.1,1.94 -1.65,2.91c-0.49,1.05 -0.99,2.1 -1.49,3.15c-0.48,0.96 -0.95,1.93 -1.42,2.89c-3.86,7.42 -9.21,13.9 -14.83,20.04c-6.13,5.61 -12.61,10.95 -20.01,14.83c-1.65,0.78 -3.3,1.58 -4.94,2.39c-1.37,0.7 -2.73,1.42 -4.09,2.16c-0.48,0.06 -1.46,0.18 -1.95,0.25c-0.97,0.55 -1.94,1.1 -2.91,1.65c-1.4,0.26 -2.81,0.53 -4.19,0.86c-0.45,0.19 -1.35,0.55 -1.8,0.74c-1.64,0.39 -3.3,0.67 -4.96,0.98c-2.46,0.53 -4.97,0.76 -7.38,1.46c-6.64,0.08 -13.42,0.84 -19.97,-0.46c-1.97,-0.3 -3.94,-0.55 -5.89,-0.93c-1.34,-0.36 -2.67,-0.71 -3.99,-1.1c-1.32,-0.31 -2.64,-0.6 -3.95,-0.94c-1.01,-0.35 -2.01,-0.7 -3.01,-1.06c-1.02,-0.36 -2.04,-0.73 -3.05,-1.11c-0.46,-0.09 -1.4,-0.28 -1.86,-0.37c-1.36,-0.72 -2.72,-1.43 -4.09,-2.13c-6.92,-3.06 -13.27,-7.25 -19.13,-12.01c-6.74,-6.37 -13.57,-12.88 -18.09,-21.09c-1.2,-2.04 -2.44,-4.04 -3.52,-6.14c-0.84,-1.69 -1.68,-3.37 -2.57,-5.03c-0.06,-0.49 -0.18,-1.47 -0.24,-1.96c-0.6,-0.99 -1.2,-1.97 -1.79,-2.95c-0.07,-0.48 -0.22,-1.45 -0.29,-1.93c-0.41,-1.01 -0.82,-2.02 -1.21,-3.04c-0.35,-1.32 -0.66,-2.64 -0.98,-3.96c-0.4,-1.64 -0.68,-3.3 -0.98,-4.96c-0.53,-2.45 -0.76,-4.97 -1.46,-7.39c-0.31,-5.83 -0.31,-11.68 0,-17.5c0.7,-2.42 0.93,-4.94 1.46,-7.39c0.3,-1.66 0.58,-3.32 0.98,-4.96c0.32,-1.32 0.64,-2.65 0.99,-3.96c0.39,-1.02 0.79,-2.03 1.2,-3.04c0.08,-0.48 0.22,-1.45 0.29,-1.93c0.6,-0.99 1.2,-1.97 1.8,-2.95c0.05,-0.51 0.14,-1.51 0.19,-2.01c0.56,-0.97 1.13,-1.94 1.68,-2.92c0.47,-1.06 0.96,-2.12 1.43,-3.19c1,-1.67 2.05,-3.31 3.04,-4.99c3.31,-5.84 7.56,-11.1 12.47,-15.65c4.34,-4.71 9.35,-8.75 14.83,-12.05c2.35,-1.32 4.61,-2.78 6.98,-4.04c0.51,-0.23 1.52,-0.7 2.03,-0.93c1.63,-0.83 3.27,-1.65 4.9,-2.47c1.05,-0.33 2.09,-0.68 3.13,-1.03c0.46,-0.11 1.37,-0.33 1.83,-0.44c1,-0.41 2.01,-0.81 3.02,-1.2c1.32,-0.33 2.65,-0.62 3.98,-0.91c1.32,-0.4 2.65,-0.76 3.98,-1.12c2.78,-0.5 5.64,-0.55 8.37,-1.37z" fill="#ffffff"/>
 </g>
</svg>